<svg width="1000" height="1000" viewBox="0 0 1000 1000" fill="none" xmlns="http://www.w3.org/2000/svg">
<rect width="1000" height="1000" fill="#3A405A"/>
<path d="M442.127 573.559C442.127 589.184 439.441 603.1 434.07 615.307C428.699 627.514 421.131 637.849 411.365 646.312C401.762 654.776 390.369 661.205 377.186 665.6C364.165 670.157 349.598 672.436 333.484 672.436C293.934 672.436 260.161 660.473 232.166 636.547L256.092 597.484C279.367 617.504 305.164 627.514 333.484 627.514C350.9 627.514 364.897 623.201 375.477 614.574C386.219 606.111 391.59 592.764 391.59 574.535V550.121C381.173 559.073 371.163 565.746 361.561 570.141C351.958 574.372 340.809 576.488 328.113 576.488C313.465 576.488 299.874 573.396 287.342 567.211C274.809 561.026 263.986 552.644 254.871 542.064C245.919 531.322 238.839 518.871 233.631 504.711C228.585 490.551 226.062 475.495 226.062 459.545C226.062 443.594 228.585 428.539 233.631 414.379C238.839 400.056 245.919 387.686 254.871 377.27C263.986 366.69 274.809 358.389 287.342 352.367C299.874 346.182 313.465 343.09 328.113 343.09C340.809 343.09 352.12 345.287 362.049 349.682C371.977 353.913 381.824 360.342 391.59 368.969V348.461H442.127V573.559ZM391.59 409.008C385.568 402.335 377.755 397.289 368.152 393.871C358.712 390.29 349.516 388.5 340.564 388.5C321.521 388.5 306.059 395.173 294.178 408.52C282.459 421.866 276.6 438.874 276.6 459.545C276.6 469.799 278.146 479.32 281.238 488.109C284.493 496.736 288.888 504.223 294.422 510.57C300.118 516.918 306.873 521.964 314.686 525.707C322.661 529.288 331.287 531.078 340.564 531.078C349.516 531.078 358.712 529.288 368.152 525.707C377.755 521.964 385.568 516.755 391.59 510.082V409.008ZM732.898 462.475C732.898 480.215 730.05 496.329 724.354 510.814C718.82 525.3 710.763 537.833 700.184 548.412C689.767 558.829 677.234 566.967 662.586 572.826C647.938 578.686 631.58 581.615 613.514 581.615C595.773 581.615 579.578 578.686 564.93 572.826C550.281 566.967 537.667 558.829 527.088 548.412C516.671 537.833 508.615 525.3 502.918 510.814C497.384 496.329 494.617 480.215 494.617 462.475C494.617 445.222 497.384 429.271 502.918 414.623C508.615 399.812 516.671 387.117 527.088 376.537C537.667 365.795 550.281 357.576 564.93 351.879C579.578 346.02 595.773 343.09 613.514 343.09C631.58 343.09 647.938 346.02 662.586 351.879C677.234 357.576 689.767 365.795 700.184 376.537C710.763 387.117 718.82 399.812 724.354 414.623C730.05 429.271 732.898 445.222 732.898 462.475ZM682.605 462.475C682.605 452.221 680.978 442.536 677.723 433.422C674.63 424.145 670.073 416.251 664.051 409.74C658.029 403.23 650.704 398.103 642.078 394.359C633.615 390.453 624.093 388.5 613.514 388.5C602.771 388.5 593.169 390.453 584.705 394.359C576.242 398.103 569.08 403.23 563.221 409.74C557.361 416.251 552.804 424.145 549.549 433.422C546.456 442.536 544.91 452.221 544.91 462.475C544.91 473.217 546.456 482.982 549.549 491.771C552.804 500.561 557.361 508.292 563.221 514.965C569.08 521.638 576.242 526.846 584.705 530.59C593.169 534.171 602.771 535.961 613.514 535.961C624.093 535.961 633.615 534.171 642.078 530.59C650.704 526.846 658.029 521.638 664.051 514.965C670.073 508.292 674.63 500.561 677.723 491.771C680.978 482.982 682.605 473.217 682.605 462.475Z" fill="#778DA9"/>
</svg>
